<mxfile host="www.draw.io" modified="2019-12-07T04:12:26.705Z" agent="Mozilla/5.0 (Macintosh; Intel Mac OS X 10_14_6) AppleWebKit/537.36 (KHTML, like Gecko) Chrome/78.0.3904.108 Safari/537.36" etag="x72Na9FpcB0mPyzS4pvY" version="12.3.8" type="github" pages="1">
  <diagram id="fBhRIyqZVW_r_yEtZ3Ld" name="Page-1">
    <mxGraphModel dx="946" dy="614" grid="1" gridSize="10" guides="1" tooltips="1" connect="1" arrows="1" fold="1" page="1" pageScale="1" pageWidth="827" pageHeight="1169" math="0" shadow="0">
      <root>
        <mxCell id="0"/>
        <mxCell id="1" parent="0"/>
        <mxCell id="jRZstdHp75a4OI8d3Yq_-3" value="" style="edgeStyle=orthogonalEdgeStyle;rounded=0;orthogonalLoop=1;jettySize=auto;html=1;" edge="1" parent="1" source="jRZstdHp75a4OI8d3Yq_-1" target="jRZstdHp75a4OI8d3Yq_-2">
          <mxGeometry relative="1" as="geometry"/>
        </mxCell>
        <mxCell id="jRZstdHp75a4OI8d3Yq_-1" value="Start" style="ellipse;whiteSpace=wrap;html=1;" vertex="1" parent="1">
          <mxGeometry x="340" y="20" width="120" height="80" as="geometry"/>
        </mxCell>
        <mxCell id="jRZstdHp75a4OI8d3Yq_-5" value="" style="edgeStyle=orthogonalEdgeStyle;rounded=0;orthogonalLoop=1;jettySize=auto;html=1;" edge="1" parent="1" source="jRZstdHp75a4OI8d3Yq_-2" target="jRZstdHp75a4OI8d3Yq_-4">
          <mxGeometry relative="1" as="geometry"/>
        </mxCell>
        <mxCell id="jRZstdHp75a4OI8d3Yq_-2" value="Set num=1" style="rounded=0;whiteSpace=wrap;html=1;" vertex="1" parent="1">
          <mxGeometry x="340" y="160" width="120" height="60" as="geometry"/>
        </mxCell>
        <mxCell id="jRZstdHp75a4OI8d3Yq_-38" value="" style="edgeStyle=orthogonalEdgeStyle;rounded=0;orthogonalLoop=1;jettySize=auto;html=1;" edge="1" parent="1" source="jRZstdHp75a4OI8d3Yq_-4" target="jRZstdHp75a4OI8d3Yq_-37">
          <mxGeometry relative="1" as="geometry"/>
        </mxCell>
        <mxCell id="jRZstdHp75a4OI8d3Yq_-39" value="F" style="text;html=1;align=center;verticalAlign=middle;resizable=0;points=[];;labelBackgroundColor=#ffffff;" vertex="1" connectable="0" parent="jRZstdHp75a4OI8d3Yq_-38">
          <mxGeometry x="-0.05" y="1" relative="1" as="geometry">
            <mxPoint as="offset"/>
          </mxGeometry>
        </mxCell>
        <mxCell id="LmhTYOiQ3rj2WEejhHd--53" style="edgeStyle=orthogonalEdgeStyle;rounded=0;orthogonalLoop=1;jettySize=auto;html=1;entryX=0.5;entryY=0;entryDx=0;entryDy=0;" edge="1" parent="1" source="jRZstdHp75a4OI8d3Yq_-4" target="jRZstdHp75a4OI8d3Yq_-13">
          <mxGeometry relative="1" as="geometry"/>
        </mxCell>
        <mxCell id="jRZstdHp75a4OI8d3Yq_-4" value="is&lt;br&gt;num &amp;lt; 101" style="rhombus;whiteSpace=wrap;html=1;" vertex="1" parent="1">
          <mxGeometry x="360" y="260" width="80" height="80" as="geometry"/>
        </mxCell>
        <mxCell id="LmhTYOiQ3rj2WEejhHd--50" value="" style="edgeStyle=orthogonalEdgeStyle;rounded=0;orthogonalLoop=1;jettySize=auto;html=1;" edge="1" parent="1" source="jRZstdHp75a4OI8d3Yq_-6" target="jRZstdHp75a4OI8d3Yq_-11">
          <mxGeometry relative="1" as="geometry"/>
        </mxCell>
        <mxCell id="jRZstdHp75a4OI8d3Yq_-6" value="Set&lt;br&gt;t=2" style="rounded=0;whiteSpace=wrap;html=1;" vertex="1" parent="1">
          <mxGeometry x="560" y="520" width="120" height="60" as="geometry"/>
        </mxCell>
        <mxCell id="jRZstdHp75a4OI8d3Yq_-41" value="" style="edgeStyle=orthogonalEdgeStyle;rounded=0;orthogonalLoop=1;jettySize=auto;html=1;entryX=0.5;entryY=0;entryDx=0;entryDy=0;" edge="1" parent="1" source="jRZstdHp75a4OI8d3Yq_-11" target="jRZstdHp75a4OI8d3Yq_-40">
          <mxGeometry relative="1" as="geometry"/>
        </mxCell>
        <mxCell id="jRZstdHp75a4OI8d3Yq_-42" value="F" style="text;html=1;align=center;verticalAlign=middle;resizable=0;points=[];;labelBackgroundColor=#ffffff;" vertex="1" connectable="0" parent="jRZstdHp75a4OI8d3Yq_-41">
          <mxGeometry x="-0.3758" y="-1" relative="1" as="geometry">
            <mxPoint as="offset"/>
          </mxGeometry>
        </mxCell>
        <mxCell id="LmhTYOiQ3rj2WEejhHd--62" style="edgeStyle=orthogonalEdgeStyle;rounded=0;orthogonalLoop=1;jettySize=auto;html=1;entryX=0.5;entryY=0;entryDx=0;entryDy=0;exitX=1;exitY=0.5;exitDx=0;exitDy=0;" edge="1" parent="1" source="jRZstdHp75a4OI8d3Yq_-11" target="jRZstdHp75a4OI8d3Yq_-21">
          <mxGeometry relative="1" as="geometry"/>
        </mxCell>
        <mxCell id="jRZstdHp75a4OI8d3Yq_-11" value="is&lt;br&gt;t &amp;lt; num&lt;br&gt;and&lt;br&gt;is_prime = true?" style="rhombus;whiteSpace=wrap;html=1;" vertex="1" parent="1">
          <mxGeometry x="545" y="639" width="150" height="130" as="geometry"/>
        </mxCell>
        <mxCell id="jRZstdHp75a4OI8d3Yq_-46" style="edgeStyle=orthogonalEdgeStyle;rounded=0;orthogonalLoop=1;jettySize=auto;html=1;entryX=0.5;entryY=0;entryDx=0;entryDy=0;exitX=1;exitY=0.5;exitDx=0;exitDy=0;" edge="1" parent="1" source="jRZstdHp75a4OI8d3Yq_-40" target="jRZstdHp75a4OI8d3Yq_-43">
          <mxGeometry relative="1" as="geometry"/>
        </mxCell>
        <mxCell id="jRZstdHp75a4OI8d3Yq_-47" value="T" style="text;html=1;align=center;verticalAlign=middle;resizable=0;points=[];;labelBackgroundColor=#ffffff;" vertex="1" connectable="0" parent="jRZstdHp75a4OI8d3Yq_-46">
          <mxGeometry x="-0.3714" y="1" relative="1" as="geometry">
            <mxPoint as="offset"/>
          </mxGeometry>
        </mxCell>
        <mxCell id="jRZstdHp75a4OI8d3Yq_-51" style="edgeStyle=orthogonalEdgeStyle;rounded=0;orthogonalLoop=1;jettySize=auto;html=1;entryX=0.5;entryY=0;entryDx=0;entryDy=0;" edge="1" parent="1" source="jRZstdHp75a4OI8d3Yq_-40" target="jRZstdHp75a4OI8d3Yq_-48">
          <mxGeometry relative="1" as="geometry"/>
        </mxCell>
        <mxCell id="jRZstdHp75a4OI8d3Yq_-55" value="F" style="text;html=1;align=center;verticalAlign=middle;resizable=0;points=[];;labelBackgroundColor=#ffffff;" vertex="1" connectable="0" parent="jRZstdHp75a4OI8d3Yq_-51">
          <mxGeometry x="-0.3833" y="1" relative="1" as="geometry">
            <mxPoint as="offset"/>
          </mxGeometry>
        </mxCell>
        <mxCell id="jRZstdHp75a4OI8d3Yq_-40" value="is&lt;br&gt;is_prime = true?" style="rhombus;whiteSpace=wrap;html=1;" vertex="1" parent="1">
          <mxGeometry x="344" y="779" width="110" height="110" as="geometry"/>
        </mxCell>
        <mxCell id="jRZstdHp75a4OI8d3Yq_-17" style="edgeStyle=orthogonalEdgeStyle;rounded=0;orthogonalLoop=1;jettySize=auto;html=1;" edge="1" parent="1" source="jRZstdHp75a4OI8d3Yq_-13" target="jRZstdHp75a4OI8d3Yq_-16">
          <mxGeometry relative="1" as="geometry">
            <Array as="points">
              <mxPoint x="717.5" y="360"/>
            </Array>
          </mxGeometry>
        </mxCell>
        <mxCell id="jRZstdHp75a4OI8d3Yq_-18" value="T" style="text;html=1;align=center;verticalAlign=middle;resizable=0;points=[];;labelBackgroundColor=#ffffff;" vertex="1" connectable="0" parent="jRZstdHp75a4OI8d3Yq_-17">
          <mxGeometry x="-0.52" relative="1" as="geometry">
            <mxPoint as="offset"/>
          </mxGeometry>
        </mxCell>
        <mxCell id="LmhTYOiQ3rj2WEejhHd--52" style="edgeStyle=orthogonalEdgeStyle;rounded=0;orthogonalLoop=1;jettySize=auto;html=1;entryX=0.5;entryY=0;entryDx=0;entryDy=0;" edge="1" parent="1" source="jRZstdHp75a4OI8d3Yq_-13" target="LmhTYOiQ3rj2WEejhHd--51">
          <mxGeometry relative="1" as="geometry">
            <Array as="points">
              <mxPoint x="540" y="360"/>
            </Array>
          </mxGeometry>
        </mxCell>
        <mxCell id="LmhTYOiQ3rj2WEejhHd--57" value="F" style="text;html=1;align=center;verticalAlign=middle;resizable=0;points=[];;labelBackgroundColor=#ffffff;" vertex="1" connectable="0" parent="LmhTYOiQ3rj2WEejhHd--52">
          <mxGeometry x="-0.5351" y="-2" relative="1" as="geometry">
            <mxPoint x="1" as="offset"/>
          </mxGeometry>
        </mxCell>
        <mxCell id="jRZstdHp75a4OI8d3Yq_-13" value="is&lt;br&gt;num = 1" style="rhombus;whiteSpace=wrap;html=1;" vertex="1" parent="1">
          <mxGeometry x="582.5" y="320" width="80" height="80" as="geometry"/>
        </mxCell>
        <mxCell id="LmhTYOiQ3rj2WEejhHd--55" style="edgeStyle=orthogonalEdgeStyle;rounded=0;orthogonalLoop=1;jettySize=auto;html=1;" edge="1" parent="1" source="jRZstdHp75a4OI8d3Yq_-16">
          <mxGeometry relative="1" as="geometry">
            <mxPoint x="620" y="520" as="targetPoint"/>
            <Array as="points">
              <mxPoint x="718" y="500"/>
              <mxPoint x="620" y="500"/>
            </Array>
          </mxGeometry>
        </mxCell>
        <mxCell id="jRZstdHp75a4OI8d3Yq_-16" value="set&lt;br&gt;is_prime = false" style="rounded=0;whiteSpace=wrap;html=1;" vertex="1" parent="1">
          <mxGeometry x="657.5" y="410" width="120" height="60" as="geometry"/>
        </mxCell>
        <mxCell id="jRZstdHp75a4OI8d3Yq_-24" value="" style="edgeStyle=orthogonalEdgeStyle;rounded=0;orthogonalLoop=1;jettySize=auto;html=1;" edge="1" parent="1" source="jRZstdHp75a4OI8d3Yq_-21" target="jRZstdHp75a4OI8d3Yq_-23">
          <mxGeometry relative="1" as="geometry"/>
        </mxCell>
        <mxCell id="jRZstdHp75a4OI8d3Yq_-21" value="reminder = num / t" style="rounded=0;whiteSpace=wrap;html=1;" vertex="1" parent="1">
          <mxGeometry x="695" y="790" width="120" height="60" as="geometry"/>
        </mxCell>
        <mxCell id="jRZstdHp75a4OI8d3Yq_-26" style="edgeStyle=orthogonalEdgeStyle;rounded=0;orthogonalLoop=1;jettySize=auto;html=1;entryX=0.5;entryY=0;entryDx=0;entryDy=0;" edge="1" parent="1" source="jRZstdHp75a4OI8d3Yq_-23" target="jRZstdHp75a4OI8d3Yq_-25">
          <mxGeometry relative="1" as="geometry"/>
        </mxCell>
        <mxCell id="jRZstdHp75a4OI8d3Yq_-34" value="T" style="text;html=1;align=center;verticalAlign=middle;resizable=0;points=[];;labelBackgroundColor=#ffffff;" vertex="1" connectable="0" parent="jRZstdHp75a4OI8d3Yq_-26">
          <mxGeometry x="-0.2679" relative="1" as="geometry">
            <mxPoint as="offset"/>
          </mxGeometry>
        </mxCell>
        <mxCell id="LmhTYOiQ3rj2WEejhHd--58" value="" style="edgeStyle=orthogonalEdgeStyle;rounded=0;orthogonalLoop=1;jettySize=auto;html=1;" edge="1" parent="1" source="jRZstdHp75a4OI8d3Yq_-23" target="jRZstdHp75a4OI8d3Yq_-27">
          <mxGeometry relative="1" as="geometry"/>
        </mxCell>
        <mxCell id="LmhTYOiQ3rj2WEejhHd--70" value="F" style="text;html=1;align=center;verticalAlign=middle;resizable=0;points=[];;labelBackgroundColor=#ffffff;" vertex="1" connectable="0" parent="LmhTYOiQ3rj2WEejhHd--58">
          <mxGeometry x="-0.1714" relative="1" as="geometry">
            <mxPoint as="offset"/>
          </mxGeometry>
        </mxCell>
        <mxCell id="jRZstdHp75a4OI8d3Yq_-23" value="is&lt;br&gt;reminder = 0?" style="rhombus;whiteSpace=wrap;html=1;" vertex="1" parent="1">
          <mxGeometry x="697.5" y="900" width="115" height="100" as="geometry"/>
        </mxCell>
        <mxCell id="LmhTYOiQ3rj2WEejhHd--69" style="edgeStyle=orthogonalEdgeStyle;rounded=0;orthogonalLoop=1;jettySize=auto;html=1;" edge="1" parent="1" source="jRZstdHp75a4OI8d3Yq_-25">
          <mxGeometry relative="1" as="geometry">
            <mxPoint x="905" y="1170" as="targetPoint"/>
          </mxGeometry>
        </mxCell>
        <mxCell id="jRZstdHp75a4OI8d3Yq_-25" value="Set&lt;br&gt;is_prime = false" style="rounded=0;whiteSpace=wrap;html=1;" vertex="1" parent="1">
          <mxGeometry x="845" y="990" width="120" height="60" as="geometry"/>
        </mxCell>
        <mxCell id="jRZstdHp75a4OI8d3Yq_-36" style="edgeStyle=orthogonalEdgeStyle;rounded=0;orthogonalLoop=1;jettySize=auto;html=1;exitX=0.5;exitY=1;exitDx=0;exitDy=0;" edge="1" parent="1" source="jRZstdHp75a4OI8d3Yq_-27">
          <mxGeometry relative="1" as="geometry">
            <mxPoint x="620" y="609" as="targetPoint"/>
            <Array as="points">
              <mxPoint x="755" y="1170"/>
              <mxPoint x="990" y="1170"/>
              <mxPoint x="990" y="609"/>
            </Array>
          </mxGeometry>
        </mxCell>
        <mxCell id="jRZstdHp75a4OI8d3Yq_-27" value="t = t + 1" style="rounded=0;whiteSpace=wrap;html=1;" vertex="1" parent="1">
          <mxGeometry x="695" y="1070" width="120" height="60" as="geometry"/>
        </mxCell>
        <mxCell id="jRZstdHp75a4OI8d3Yq_-37" value="End" style="ellipse;whiteSpace=wrap;html=1;" vertex="1" parent="1">
          <mxGeometry x="345" y="380" width="110" height="60" as="geometry"/>
        </mxCell>
        <mxCell id="jRZstdHp75a4OI8d3Yq_-53" style="edgeStyle=orthogonalEdgeStyle;rounded=0;orthogonalLoop=1;jettySize=auto;html=1;entryX=1;entryY=0.5;entryDx=0;entryDy=0;" edge="1" parent="1" source="jRZstdHp75a4OI8d3Yq_-43" target="jRZstdHp75a4OI8d3Yq_-48">
          <mxGeometry relative="1" as="geometry"/>
        </mxCell>
        <mxCell id="jRZstdHp75a4OI8d3Yq_-43" value="print num" style="rounded=0;whiteSpace=wrap;html=1;" vertex="1" parent="1">
          <mxGeometry x="444" y="889" width="120" height="60" as="geometry"/>
        </mxCell>
        <mxCell id="jRZstdHp75a4OI8d3Yq_-54" style="edgeStyle=orthogonalEdgeStyle;rounded=0;orthogonalLoop=1;jettySize=auto;html=1;entryX=0;entryY=0.5;entryDx=0;entryDy=0;exitX=0.5;exitY=1;exitDx=0;exitDy=0;" edge="1" parent="1" source="jRZstdHp75a4OI8d3Yq_-48" target="jRZstdHp75a4OI8d3Yq_-4">
          <mxGeometry relative="1" as="geometry">
            <Array as="points">
              <mxPoint x="269" y="990"/>
              <mxPoint x="160" y="990"/>
              <mxPoint x="160" y="300"/>
            </Array>
          </mxGeometry>
        </mxCell>
        <mxCell id="jRZstdHp75a4OI8d3Yq_-48" value="num = num + 1" style="rounded=0;whiteSpace=wrap;html=1;" vertex="1" parent="1">
          <mxGeometry x="209" y="889" width="120" height="60" as="geometry"/>
        </mxCell>
        <mxCell id="jRZstdHp75a4OI8d3Yq_-56" value="&lt;h1&gt;Print Primes&lt;/h1&gt;&lt;p&gt;This flow chart for program that prints all primes between 1 to 100&lt;/p&gt;" style="text;html=1;strokeColor=none;fillColor=none;spacing=5;spacingTop=-20;whiteSpace=wrap;overflow=hidden;rounded=0;" vertex="1" parent="1">
          <mxGeometry x="30" y="30" width="190" height="120" as="geometry"/>
        </mxCell>
        <mxCell id="LmhTYOiQ3rj2WEejhHd--54" style="edgeStyle=orthogonalEdgeStyle;rounded=0;orthogonalLoop=1;jettySize=auto;html=1;entryX=0.5;entryY=0;entryDx=0;entryDy=0;" edge="1" parent="1" source="LmhTYOiQ3rj2WEejhHd--51" target="jRZstdHp75a4OI8d3Yq_-6">
          <mxGeometry relative="1" as="geometry">
            <Array as="points">
              <mxPoint x="540" y="500"/>
              <mxPoint x="620" y="500"/>
            </Array>
          </mxGeometry>
        </mxCell>
        <mxCell id="LmhTYOiQ3rj2WEejhHd--51" value="set&lt;br&gt;is_prime = true" style="rounded=0;whiteSpace=wrap;html=1;" vertex="1" parent="1">
          <mxGeometry x="480" y="410" width="120" height="60" as="geometry"/>
        </mxCell>
      </root>
    </mxGraphModel>
  </diagram>
</mxfile>
